<?xml version="1.0" standalone="no"?>
<svg xmlns:xlink="http://www.w3.org/1999/xlink" id="wave" style="transform:rotate(180deg); transition: 0.3s" viewBox="0 0 1440 100" version="1.1" xmlns="http://www.w3.org/2000/svg"><defs><linearGradient id="sw-gradient-0" x1="0" x2="0" y1="1" y2="0"><stop stop-color="rgba(255, 249, 234, 1)" offset="0%"/><stop stop-color="rgba(255, 249, 234, 1)" offset="100%"/></linearGradient></defs><path style="transform:translate(0, 0px); opacity:1" fill="url(#sw-gradient-0)" d="M0,10L24,16.7C48,23,96,37,144,35C192,33,240,17,288,13.3C336,10,384,20,432,25C480,30,528,30,576,28.3C624,27,672,23,720,20C768,17,816,13,864,25C912,37,960,63,1008,71.7C1056,80,1104,70,1152,58.3C1200,47,1248,33,1296,26.7C1344,20,1392,20,1440,28.3C1488,37,1536,53,1584,58.3C1632,63,1680,57,1728,60C1776,63,1824,77,1872,80C1920,83,1968,77,2016,73.3C2064,70,2112,70,2160,65C2208,60,2256,50,2304,43.3C2352,37,2400,33,2448,31.7C2496,30,2544,30,2592,40C2640,50,2688,70,2736,70C2784,70,2832,50,2880,46.7C2928,43,2976,57,3024,61.7C3072,67,3120,63,3168,65C3216,67,3264,73,3312,76.7C3360,80,3408,80,3432,80L3456,80L3456,100L3432,100C3408,100,3360,100,3312,100C3264,100,3216,100,3168,100C3120,100,3072,100,3024,100C2976,100,2928,100,2880,100C2832,100,2784,100,2736,100C2688,100,2640,100,2592,100C2544,100,2496,100,2448,100C2400,100,2352,100,2304,100C2256,100,2208,100,2160,100C2112,100,2064,100,2016,100C1968,100,1920,100,1872,100C1824,100,1776,100,1728,100C1680,100,1632,100,1584,100C1536,100,1488,100,1440,100C1392,100,1344,100,1296,100C1248,100,1200,100,1152,100C1104,100,1056,100,1008,100C960,100,912,100,864,100C816,100,768,100,720,100C672,100,624,100,576,100C528,100,480,100,432,100C384,100,336,100,288,100C240,100,192,100,144,100C96,100,48,100,24,100L0,100Z"/></svg>